# xmcd CD database file
#
# Track frame offsets:
#	182
#	13133
#	26895
#	39665
#	53795
#	65080
#	80054
#	94645
#	107815
#	121543
#	134823
#	147628
#	161998
#	173863
#	188445
#	217680
#	231113
#	245751
#	260115
#	274841
#	287441
#	301555
#	314379
#
# Disc length: 4393 seconds
#
# Revision: 0
# Processed by: cddbd v1.5.2PL0 Copyright (c) Steve Scherf et al.
# Submitted via: CDex 1.70beta2
#
DISCID=54112717
DTITLE=Ray Ventura - Du Jazz à la Chanson 1926-1946 CD1
DYEAR=1997
DGENRE=Jazz
TTITLE0=Fantastique
TTITLE1=Louise
TTITLE2=Good for you, bad for me
TTITLE3=Mon idéal
TTITLE4=Plaisir d'amour
TTITLE5=St. Louis Blues
TTITLE6=ST. James Infirmary
TTITLE7=Le vieux château
TTITLE8=Chez les fous
TTITLE9=Blue prelude
TTITLE10=Eteignons tout et couchons-nous
TTITLE11=Que fait-on Margoton ?
TTITLE12=Just an idea
TTITLE13=La légende du roi Marc
TTITLE14=Impressions de phono, de TSF et d'opéra sur l'air de "Je t'ai donné mon coeur"
TTITLE15=Ici l'on pêche
TTITLE16=Mais le dimanche
TTITLE17=Sur le Yang-Tsé-Kiang
TTITLE18=Chanson en couleurs
TTITLE19=Vivre tout nu
TTITLE20=Le bateau ivre
TTITLE21=La petite gare
TTITLE22=La boutique du père Isaac
EXTD=YEAR: 1997
EXTT0=
EXTT1=
EXTT2=
EXTT3=
EXTT4=
EXTT5=
EXTT6=
EXTT7=
EXTT8=
EXTT9=
EXTT10=
EXTT11=
EXTT12=
EXTT13=
EXTT14=
EXTT15=
EXTT16=
EXTT17=
EXTT18=
EXTT19=
EXTT20=
EXTT21=
EXTT22=
PLAYORDER=
